<?xml version="1.0" encoding="UTF-8"?>
<svg version="1.1" xmlns="http://www.w3.org/2000/svg" width="500" height="500">
<path d="M0 0 C0.89771468 -0.00226556 1.79542937 -0.00453111 2.72034752 -0.00686532 C5.72879009 -0.01319603 8.7371875 -0.01237655 11.74563599 -0.0115509 C13.90247659 -0.01454296 16.05931665 -0.0179456 18.21615601 -0.02172852 C24.07565005 -0.03056765 29.9351295 -0.03290659 35.79462957 -0.0335443 C40.68534821 -0.03449365 45.57606345 -0.03817222 50.46678078 -0.0417164 C62.00472125 -0.04986052 73.54265391 -0.05230066 85.08059692 -0.05158997 C96.98493716 -0.05098907 108.88923209 -0.06154342 120.79356086 -0.07733363 C131.01279694 -0.09040595 141.23201821 -0.095774 151.45126259 -0.09513456 C157.55532239 -0.09487949 163.65934193 -0.09773538 169.7633934 -0.10831261 C175.50401297 -0.11798844 181.24455375 -0.11807625 186.98517609 -0.11079597 C189.09146617 -0.10974952 191.19776114 -0.11211662 193.30404282 -0.11815643 C196.18065259 -0.1258706 199.05698987 -0.12123526 201.93359375 -0.11352539 C203.18190595 -0.12124074 203.18190595 -0.12124074 204.45543659 -0.12911195 C213.72126525 -0.07428487 222.09164877 2.63277693 229.08206177 8.92277527 C236.84227969 17.2645941 238.69019025 25.2998333 238.58825684 36.49559021 C238.59308567 37.71665081 238.5979145 38.93771141 238.60288966 40.19577384 C238.6121739 43.56379065 238.60363899 46.93088729 238.5873611 50.29881907 C238.57414958 53.93888725 238.58411635 57.5789037 238.59112549 61.21897888 C238.60118621 68.34027418 238.58995659 75.46138309 238.57142489 82.58265522 C238.55061869 90.87703956 238.55079824 99.171384 238.55177005 107.46578953 C238.55277032 122.26301416 238.53447226 137.06015219 238.50540161 151.85734558 C238.47720827 166.21543454 238.46306102 180.57344731 238.46438599 194.93156433 C238.4644659 195.81649749 238.46454581 196.70143064 238.46462815 197.61317995 C238.46470885 198.49658634 238.46478956 199.37999272 238.46487272 200.290169 C238.46625216 216.64193809 238.45447639 232.99367483 238.43656629 249.34543343 C238.43053362 255.12754494 238.42840719 260.90965052 238.42750168 266.69176483 C238.42613778 273.7346766 238.41721322 280.77753382 238.39883606 287.82042244 C238.38960002 291.41394629 238.38350913 295.00740036 238.38602448 298.60093689 C238.38861735 302.49393611 238.37572631 306.3867948 238.36120605 310.2797699 C238.36430326 311.4185692 238.36740046 312.55736851 238.37059152 313.73067689 C238.36091818 315.29436214 238.36091818 315.29436214 238.35104942 316.88963699 C238.34964057 317.78811301 238.34823172 318.68658902 238.34678018 319.61229157 C237.9219369 323.84632432 236.0319645 327.39578651 234.09378052 331.13371277 C233.43378052 331.13371277 232.77378052 331.13371277 232.09378052 331.13371277 C231.78440552 331.96902527 231.78440552 331.96902527 231.46878052 332.82121277 C228.55150092 337.72754663 223.39162048 341.23448712 218.09378052 343.13371277 C214.33542196 343.63815322 210.80843596 343.95558704 207.09378052 343.13371277 C203.29216717 339.9541816 200.62302871 336.25350113 197.90628052 332.13371277 C197.23210083 331.12308777 196.55792114 330.11246277 195.86331177 329.07121277 C194.29130158 326.46160645 193.11904636 323.99394159 192.09378052 321.13371277 C191.43378052 321.13371277 190.77378052 321.13371277 190.09378052 321.13371277 C189.43378052 320.30871277 188.77378052 319.48371277 188.09378052 318.63371277 C184.3164502 315.4859375 182.24359357 315.67008389 177.49612427 315.86027527 C175.28065551 316.11244244 173.23722597 316.52978587 171.09378052 317.13371277 C171.09378052 317.79371277 171.09378052 318.45371277 171.09378052 319.13371277 C170.43378052 319.13371277 169.77378052 319.13371277 169.09378052 319.13371277 C168.84628052 319.82851746 168.59878052 320.52332214 168.34378052 321.23918152 C166.90366196 324.57395606 165.10303014 327.42125792 163.09378052 330.44621277 C162.39253052 331.51484558 161.69128052 332.58347839 160.96878052 333.68449402 C160.35003052 334.49273621 159.73128052 335.30097839 159.09378052 336.13371277 C158.43378052 336.13371277 157.77378052 336.13371277 157.09378052 336.13371277 C156.76378052 337.12371277 156.43378052 338.11371277 156.09378052 339.13371277 C148.98235407 344.11171129 141.55668662 344.09143011 133.09378052 343.13371277 C129.98623602 342.10817888 127.85419715 340.93643384 125.09378052 339.13371277 C125.09378052 338.47371277 125.09378052 337.81371277 125.09378052 337.13371277 C124.43378052 337.13371277 123.77378052 337.13371277 123.09378052 337.13371277 C123.09378052 336.47371277 123.09378052 335.81371277 123.09378052 335.13371277 C122.43378052 335.13371277 121.77378052 335.13371277 121.09378052 335.13371277 C118.95128991 332.08492967 116.9638119 328.97617602 114.99026489 325.81730652 C110.65975915 319.03598174 110.65975915 319.03598174 103.62893677 315.56730652 C102.81296021 315.56859558 101.99698364 315.56988464 101.15628052 315.57121277 C100.34288208 315.54929871 99.52948364 315.52738464 98.69143677 315.50480652 C92.71606332 316.95147588 89.48835796 321.65001462 86.41604614 326.60392761 C86.02094849 327.25313171 85.62585083 327.90233582 85.21878052 328.57121277 C81.10552605 335.05256236 77.05570565 339.6527502 70.09378052 343.13371277 C67.49590522 343.28515841 64.94269231 343.36508258 62.34378052 343.38371277 C61.28803833 343.41465027 61.28803833 343.41465027 60.21096802 343.44621277 C53.94008124 343.49283646 49.96559103 341.80206562 45.21878052 337.57121277 C43.09378052 335.13371277 43.09378052 335.13371277 43.09378052 333.13371277 C42.43378052 333.13371277 41.77378052 333.13371277 41.09378052 333.13371277 C41.09378052 332.14371277 41.09378052 331.15371277 41.09378052 330.13371277 C40.43378052 330.13371277 39.77378052 330.13371277 39.09378052 330.13371277 C37.58596802 328.23527527 37.58596802 328.23527527 35.96878052 325.75871277 C35.42995239 324.94660339 34.89112427 324.13449402 34.33596802 323.29777527 C33.09378052 321.13371277 33.09378052 321.13371277 33.09378052 319.13371277 C32.43378052 319.13371277 31.77378052 319.13371277 31.09378052 319.13371277 C31.09378052 318.47371277 31.09378052 317.81371277 31.09378052 317.13371277 C26.45485641 315.8266718 21.87379414 315.40547731 17.09378052 316.13371277 C14.09044785 318.46707943 14.09044785 318.46707943 12.09378052 321.13371277 C11.43378052 321.13371277 10.77378052 321.13371277 10.09378052 321.13371277 C9.85401489 321.81175964 9.61424927 322.48980652 9.36721802 323.18840027 C7.81735168 326.77306044 5.82710436 329.98598785 3.71878052 333.25871277 C3.33206177 333.87875183 2.94534302 334.49879089 2.54690552 335.13761902 C0.42700526 338.44551708 -1.42781151 341.21787088 -4.90621948 343.13371277 C-12.41981602 344.71552257 -18.66405684 342.19940454 -24.90621948 338.13371277 C-26.90007375 336.55655164 -28.29057367 335.12634261 -29.90621948 333.13371277 C-29.90621948 332.47371277 -29.90621948 331.81371277 -29.90621948 331.13371277 C-30.56621948 331.13371277 -31.22621948 331.13371277 -31.90621948 331.13371277 C-36.03124559 322.88366056 -36.03124559 322.88366056 -36.04044056 318.22475243 C-36.0448984 317.18068525 -36.04935625 316.13661807 -36.05394918 315.06091249 C-36.05376481 313.90491064 -36.05358045 312.74890879 -36.0533905 311.55787659 C-36.05706719 310.33674656 -36.06074388 309.11561652 -36.06453198 307.85748255 C-36.07367134 304.45696049 -36.07827126 301.05648675 -36.08092129 297.65595698 C-36.08481986 293.9925389 -36.09439862 290.32913485 -36.10313416 286.66572571 C-36.12291299 277.81216432 -36.13296734 268.95860177 -36.14186195 260.1050238 C-36.14624321 255.93696991 -36.1516105 251.76891729 -36.15685081 247.60086441 C-36.1738658 233.74675192 -36.18835969 219.89264024 -36.19559956 206.03851891 C-36.1975095 202.44183221 -36.19942982 198.84514553 -36.2013855 195.24845886 C-36.20186924 194.35450392 -36.20235298 193.46054897 -36.20285138 192.53950448 C-36.21115057 178.05997732 -36.23648439 163.5805328 -36.26896618 149.10104172 C-36.30203451 134.23901501 -36.32004818 119.3770303 -36.3232438 104.51496661 C-36.32540929 96.16899216 -36.33416344 87.82313817 -36.35970497 79.47719955 C-36.38140904 72.3686796 -36.38946393 65.26030935 -36.37973819 58.15176003 C-36.37519236 54.52541083 -36.37709566 50.89937052 -36.39649963 47.27306366 C-36.41736793 43.33906446 -36.4071493 39.40549104 -36.39396667 35.47145081 C-36.40493592 34.32883329 -36.41590517 33.18621577 -36.42720681 32.00897348 C-36.34105076 21.36896815 -32.57234473 15.08916588 -25.34762573 7.34074402 C-18.03403324 0.7292564 -9.43528543 -0.01746389 0 0 Z M-20.40621948 19.57121277 C-21.05590698 20.31242371 -21.70559448 21.05363464 -22.37496948 21.81730652 C-24.93176746 25.6851157 -25.03112161 29.67696582 -25.03764725 34.22161484 C-25.04148839 35.22923772 -25.04532954 36.23686059 -25.04928708 37.2750175 C-25.0484206 38.37490732 -25.04755412 39.47479715 -25.04666138 40.60801697 C-25.0496325 41.78200208 -25.05260362 42.95598719 -25.05566478 44.16554761 C-25.06283642 47.42053707 -25.06552342 50.67549434 -25.06626225 53.93049049 C-25.06811568 57.44254266 -25.07566444 60.95458346 -25.08239746 64.46662903 C-25.09596928 72.14437675 -25.10200363 79.82211925 -25.10640812 87.49987698 C-25.10917235 92.29527586 -25.11341002 97.09067273 -25.11791229 101.88607025 C-25.13010318 115.16726937 -25.14040303 128.44846688 -25.14378738 141.72967148 C-25.14400695 142.57940386 -25.14422652 143.42913623 -25.14445274 144.30461808 C-25.14467101 145.15636346 -25.14488929 146.00810885 -25.14511418 146.8856647 C-25.14555765 148.61157656 -25.14600421 150.33748841 -25.14645386 152.06340027 C-25.14667529 152.91950902 -25.14689672 153.77561777 -25.14712486 154.65766922 C-25.15107255 168.52846131 -25.1685265 182.39920086 -25.19181338 196.26997265 C-25.21553732 210.51624283 -25.2279897 224.76248665 -25.2291553 239.0087769 C-25.23007145 247.00539465 -25.23580856 255.00194392 -25.25397491 262.99854279 C-25.26938994 269.80794244 -25.27448809 276.61725244 -25.26623681 283.42666623 C-25.26233532 286.89919044 -25.2632352 290.3715342 -25.27729416 293.8440361 C-25.28998477 297.61333731 -25.28415189 301.38217604 -25.27371216 305.151474 C-25.28176856 306.24244094 -25.28982497 307.33340787 -25.29812551 308.45743442 C-25.25650803 314.88684829 -24.37996403 320.18324217 -21.90621948 326.13371277 C-21.24621948 326.13371277 -20.58621948 326.13371277 -19.90621948 326.13371277 C-19.90621948 326.79371277 -19.90621948 327.45371277 -19.90621948 328.13371277 C-16.65709178 330.45451827 -13.84742658 331.57068318 -9.90621948 332.13371277 C-6.9945016 328.46391073 -6.9945016 328.46391073 -5.90621948 324.13371277 C-5.24621948 324.13371277 -4.58621948 324.13371277 -3.90621948 324.13371277 C-3.03996948 322.52496277 -3.03996948 322.52496277 -2.15621948 320.88371277 C-0.39632388 317.80852677 1.45708181 315.5307116 4.09378052 313.13371277 C4.87753052 312.28808777 5.66128052 311.44246277 6.46878052 310.57121277 C12.42512775 305.04031891 17.8338931 304.5918623 25.68362427 304.78996277 C32.91091772 305.51848719 37.52581248 308.89959481 42.44534302 314.07511902 C44.25941737 316.34056258 45.66016785 318.67411642 47.09378052 321.19621277 C50.51780684 327.15420021 53.95215208 331.19673587 60.65628052 333.19621277 C65.50131851 333.10812117 68.31244366 331.86205792 71.80081177 328.47746277 C75.27414125 324.8769067 75.27414125 324.8769067 76.09378052 320.13371277 C76.75378052 320.13371277 77.41378052 320.13371277 78.09378052 320.13371277 C78.75378052 318.15371277 79.41378052 316.17371277 80.09378052 314.13371277 C80.75378052 314.13371277 81.41378052 314.13371277 82.09378052 314.13371277 C84.26044718 312.30037944 84.26044718 312.30037944 86.09378052 310.13371277 C86.09378052 309.47371277 86.09378052 308.81371277 86.09378052 308.13371277 C95.61458453 304.0945838 104.8582062 303.76689707 114.54690552 307.47746277 C115.31260864 307.80230652 115.31260864 307.80230652 116.09378052 308.13371277 C116.09378052 308.79371277 116.09378052 309.45371277 116.09378052 310.13371277 C117.92711385 312.30037944 117.92711385 312.30037944 120.09378052 314.13371277 C120.75378052 314.13371277 121.41378052 314.13371277 122.09378052 314.13371277 C122.35803833 314.85429871 122.62229614 315.57488464 122.89456177 316.31730652 C125.39753097 322.1956153 129.13632079 328.29788663 134.59378052 331.82121277 C139.64823324 333.71663254 143.10376886 332.79704999 148.09378052 331.13371277 C148.09378052 330.47371277 148.09378052 329.81371277 148.09378052 329.13371277 C148.67643677 328.93132996 149.25909302 328.72894714 149.85940552 328.52043152 C152.99300162 326.57562974 154.05858222 324.15145517 155.84378052 320.94621277 C160.09050821 313.65477513 164.84819153 307.78408066 173.09378052 305.13371277 C180.42535755 304.35504872 186.42920977 305.03944778 193.09378052 308.13371277 C193.87753052 308.44308777 194.66128052 308.75246277 195.46878052 309.07121277 C197.57245534 310.44669246 198.15905835 311.8328582 199.09378052 314.13371277 C199.42378052 314.79371277 199.75378052 315.45371277 200.09378052 316.13371277 C200.75378052 316.13371277 201.41378052 316.13371277 202.09378052 316.13371277 C202.75378052 318.11371277 203.41378052 320.09371277 204.09378052 322.13371277 C204.75378052 322.13371277 205.41378052 322.13371277 206.09378052 322.13371277 C206.32065552 322.85558777 206.54753052 323.57746277 206.78128052 324.32121277 C208.34209065 327.6658059 210.39690922 329.64975236 213.09378052 332.13371277 C219.02028553 329.85428776 222.53589905 327.98705236 225.67976665 322.22889805 C227.80438104 317.08703367 227.50475699 311.84333947 227.46800232 306.36074829 C227.47197673 305.17885408 227.47595113 303.99695987 227.48004597 302.77925068 C227.48798821 299.51147376 227.48252479 296.24404072 227.47129548 292.97628367 C227.46243517 289.44727642 227.47090222 285.91830441 227.47715759 282.38929749 C227.48663669 275.48132236 227.48005371 268.57345183 227.46789465 261.66548448 C227.4542613 253.61970409 227.45591367 245.57394851 227.45802798 237.52815951 C227.46121652 223.17245333 227.44955754 208.8167968 227.42996216 194.46110535 C227.41095504 180.53270455 227.40387571 166.60436193 227.40945435 152.6759491 C227.41551255 137.50531531 227.41533457 122.3347071 227.40396851 107.16407543 C227.40276123 105.54638581 227.40155525 103.92869618 227.40035057 102.31100655 C227.39974703 101.51508787 227.39914349 100.71916918 227.39852167 99.89913176 C227.39464308 94.29133756 227.3950359 88.68355288 227.39693642 83.07575798 C227.39905881 76.24216989 227.39383082 69.40863273 227.37932286 62.57505899 C227.37208096 59.08876066 227.36800012 55.60253651 227.37256622 52.11623192 C227.37578059 48.33730327 227.36672463 44.55859917 227.35447693 40.7796936 C227.35825625 39.67746143 227.36203558 38.57522926 227.36592942 37.43959612 C227.32316542 30.00211297 226.7548001 24.46645053 221.59378052 18.75871277 C220.98534302 18.07035339 220.37690552 17.38199402 219.75003052 16.67277527 C218.22642244 14.90680739 218.22642244 14.90680739 216.09378052 15.13371277 C216.09378052 14.47371277 216.09378052 13.81371277 216.09378052 13.13371277 C210.62618758 11.30423805 205.85589046 10.84443133 200.11236572 10.86628723 C199.23068753 10.86175612 198.34900934 10.85722501 197.44061363 10.85255659 C194.49828854 10.83993755 191.55614914 10.84153134 188.61380005 10.84318542 C186.49931603 10.83719868 184.38483419 10.83039279 182.27035522 10.8228302 C176.53479946 10.80517933 170.79930339 10.80047524 165.06372309 10.79919863 C161.47873344 10.79777612 157.89375893 10.79350465 154.30877304 10.78820419 C141.79748319 10.76970794 129.28623593 10.7615332 116.77493286 10.7631073 C105.11933262 10.76430904 93.46391744 10.74319909 81.80836403 10.71161997 C71.79456815 10.68545739 61.78083273 10.67473998 51.76700294 10.67601812 C45.78917358 10.67652769 39.81150879 10.6708466 33.83371353 10.64966202 C28.2111749 10.63027976 22.58895784 10.63015532 16.96640778 10.64469528 C14.90610407 10.64678437 12.84578024 10.64207656 10.78551102 10.62997437 C7.96635235 10.61449037 5.14829824 10.62385087 2.3291626 10.63923645 C1.11498097 10.62380576 1.11498097 10.62380576 -0.12372959 10.60806334 C-8.12737718 10.70416353 -15.1545467 13.3617554 -20.40621948 19.57121277 Z " fill="#1F1F1F" transform="translate(148.90621948242188,74.86628723144531)"/>
<path d="M0 0 C0.89771468 -0.00226556 1.79542937 -0.00453111 2.72034752 -0.00686532 C5.72879009 -0.01319603 8.7371875 -0.01237655 11.74563599 -0.0115509 C13.90247659 -0.01454296 16.05931665 -0.0179456 18.21615601 -0.02172852 C24.07565005 -0.03056765 29.9351295 -0.03290659 35.79462957 -0.0335443 C40.68534821 -0.03449365 45.57606345 -0.03817222 50.46678078 -0.0417164 C62.00472125 -0.04986052 73.54265391 -0.05230066 85.08059692 -0.05158997 C96.98493716 -0.05098907 108.88923209 -0.06154342 120.79356086 -0.07733363 C131.01279694 -0.09040595 141.23201821 -0.095774 151.45126259 -0.09513456 C157.55532239 -0.09487949 163.65934193 -0.09773538 169.7633934 -0.10831261 C175.50401297 -0.11798844 181.24455375 -0.11807625 186.98517609 -0.11079597 C189.09146617 -0.10974952 191.19776114 -0.11211662 193.30404282 -0.11815643 C196.18065259 -0.1258706 199.05698987 -0.12123526 201.93359375 -0.11352539 C203.18190595 -0.12124074 203.18190595 -0.12124074 204.45543659 -0.12911195 C209.73850512 -0.09785136 215.5724796 -0.01406208 219.78128052 3.57121277 C220.21440552 4.08683777 220.64753052 4.60246277 221.09378052 5.13371277 C222.41341761 6.15171853 223.74387698 7.15619641 225.09378052 8.13371277 C224.57815552 9.08246277 224.06253052 10.03121277 223.53128052 11.00871277 C222.81971802 12.55558777 222.81971802 12.55558777 222.09378052 14.13371277 C222.42378052 14.79371277 222.75378052 15.45371277 223.09378052 16.13371277 C222.76378052 16.79371277 222.43378052 17.45371277 222.09378052 18.13371277 C220.09378052 17.13371277 218.09378052 16.13371277 216.09378052 15.13371277 C216.09378052 14.47371277 216.09378052 13.81371277 216.09378052 13.13371277 C210.72210489 12.23656008 205.55285566 11.98530941 200.11236572 11.98654175 C199.23068753 11.98286506 198.34900934 11.97918837 197.44061363 11.97540027 C194.49833642 11.96442311 191.55609461 11.96052984 188.61380005 11.95671082 C186.49931732 11.95044187 184.38483568 11.94379469 182.27035522 11.9367981 C175.33910888 11.91581422 168.40786244 11.90540401 161.47659302 11.89543152 C159.08731958 11.89138245 156.69804625 11.88726549 154.30877304 11.88308144 C143.08704819 11.86404569 131.86532988 11.84980881 120.643592 11.84146947 C107.69843908 11.8316896 94.75345681 11.8053436 81.80836403 11.76496857 C71.79457553 11.73480914 61.78083598 11.72000092 51.76700294 11.71668845 C45.78916266 11.71433868 39.81150503 11.7053866 33.83371353 11.68022728 C28.21118921 11.6569434 22.58896782 11.65271476 16.96640778 11.66298866 C14.9060986 11.66348398 12.84577448 11.6571649 10.78551102 11.64343262 C7.96636692 11.62569702 5.14830827 11.63282802 2.3291626 11.64596558 C1.51970818 11.63499633 0.71025376 11.62402708 -0.12372959 11.61272544 C-6.99997926 11.68975302 -12.94481743 13.68373706 -18.28121948 18.09855652 C-18.81746948 18.74953308 -19.35371948 19.40050964 -19.90621948 20.07121277 C-20.74153198 21.04381042 -20.74153198 21.04381042 -21.59371948 22.03605652 C-23.95411094 25.80846786 -24.03137725 29.85486474 -24.03764725 34.21602821 C-24.04148839 35.22241769 -24.04532954 36.22880718 -24.04928708 37.26569331 C-24.04798736 38.91348168 -24.04798736 38.91348168 -24.04666138 40.59455872 C-24.0496325 41.7671327 -24.05260362 42.93970668 -24.05566478 44.1478132 C-24.06283645 47.39894144 -24.06552343 50.65003746 -24.06626225 53.9011724 C-24.06811571 57.40917281 -24.07566458 60.91716183 -24.08239746 64.42515564 C-24.09597012 72.09477345 -24.10200399 79.76438602 -24.10640812 87.43401384 C-24.10917265 92.22540809 -24.11341042 97.01680032 -24.11791229 101.80819321 C-24.13010415 115.08080989 -24.14040325 128.35342497 -24.14378738 141.62604713 C-24.14400695 142.47527639 -24.14422652 143.32450564 -24.14445274 144.19946911 C-24.14467101 145.05070358 -24.14488929 145.90193805 -24.14511418 146.7789675 C-24.14555765 148.503824 -24.14600421 150.22868049 -24.14645386 151.95353699 C-24.14667529 152.80912112 -24.14689672 153.66470525 -24.14712486 154.54621617 C-24.15107096 168.40272413 -24.16851963 182.25917943 -24.19181338 196.11566706 C-24.21554969 210.35064677 -24.22799029 224.5856001 -24.2291553 238.82059991 C-24.23007084 246.80945667 -24.23579255 254.79824485 -24.25397491 262.78708267 C-24.26940677 269.59130147 -24.27447826 276.39543049 -24.26623681 283.19966348 C-24.26234103 286.66838506 -24.26320702 290.13692602 -24.27729416 293.60562515 C-24.29001602 297.37422624 -24.28413486 301.14236682 -24.27371216 304.91096497 C-24.28176856 305.99610622 -24.28982497 307.08124748 -24.29812551 308.1992718 C-24.25258571 315.26215584 -23.09160112 321.41942809 -20.90621948 328.13371277 C-21.56621948 328.79371277 -22.22621948 329.45371277 -22.90621948 330.13371277 C-22.66757506 335.16876329 -22.66757506 335.16876329 -19.90621948 339.13371277 C-24.7265621 338.72054054 -26.81614559 336.75351362 -29.90621948 333.13371277 C-29.90621948 332.47371277 -29.90621948 331.81371277 -29.90621948 331.13371277 C-30.56621948 331.13371277 -31.22621948 331.13371277 -31.90621948 331.13371277 C-36.03124559 322.88366056 -36.03124559 322.88366056 -36.04044056 318.22475243 C-36.0448984 317.18068525 -36.04935625 316.13661807 -36.05394918 315.06091249 C-36.05376481 313.90491064 -36.05358045 312.74890879 -36.0533905 311.55787659 C-36.05706719 310.33674656 -36.06074388 309.11561652 -36.06453198 307.85748255 C-36.07367134 304.45696049 -36.07827126 301.05648675 -36.08092129 297.65595698 C-36.08481986 293.9925389 -36.09439862 290.32913485 -36.10313416 286.66572571 C-36.12291299 277.81216432 -36.13296734 268.95860177 -36.14186195 260.1050238 C-36.14624321 255.93696991 -36.1516105 251.76891729 -36.15685081 247.60086441 C-36.1738658 233.74675192 -36.18835969 219.89264024 -36.19559956 206.03851891 C-36.1975095 202.44183221 -36.19942982 198.84514553 -36.2013855 195.24845886 C-36.20186924 194.35450392 -36.20235298 193.46054897 -36.20285138 192.53950448 C-36.21115057 178.05997732 -36.23648439 163.5805328 -36.26896618 149.10104172 C-36.30203451 134.23901501 -36.32004818 119.3770303 -36.3232438 104.51496661 C-36.32540929 96.16899216 -36.33416344 87.82313817 -36.35970497 79.47719955 C-36.38140904 72.3686796 -36.38946393 65.26030935 -36.37973819 58.15176003 C-36.37519236 54.52541083 -36.37709566 50.89937052 -36.39649963 47.27306366 C-36.41736793 43.33906446 -36.4071493 39.40549104 -36.39396667 35.47145081 C-36.40493592 34.32883329 -36.41590517 33.18621577 -36.42720681 32.00897348 C-36.34105076 21.36896815 -32.57234473 15.08916588 -25.34762573 7.34074402 C-18.03403324 0.7292564 -9.43528543 -0.01746389 0 0 Z " fill="#1B1B1B" transform="translate(148.90621948242188,74.86628723144531)"/>
<path d="M0 0 C0.66386719 0.39832031 1.32773437 0.79664063 2.01171875 1.20703125 C3.6875 2.25 3.6875 2.25 6 4 C6 4.66 6 5.32 6 6 C6.66 6 7.32 6 8 6 C13 11.47619048 13 11.47619048 13 14 C13.66 14 14.32 14 15 14 C17 17 17 17 17 20 C17.66 20 18.32 20 19 20 C25.84336304 35.48898581 27.73367692 50.62664812 23.140625 67.078125 C21.8699918 70.33303471 20.29324647 73.18989097 18.5 76.1875 C17.8915625 77.21230469 17.283125 78.23710937 16.65625 79.29296875 C15.47714577 81.22013675 14.25321289 83.12018066 13 85 C12.34 85 11.68 85 11 85 C10.5978125 85.8971875 10.5978125 85.8971875 10.1875 86.8125 C9.00082594 88.99847854 7.90400887 90.41332594 6 92 C5.34 92 4.68 92 4 92 C4 92.66 4 93.32 4 94 C1.90474996 95.28773762 -0.19952408 96.55440902 -2.3125 97.8125 C-2.88806641 98.16892578 -3.46363281 98.52535156 -4.05664062 98.89257812 C-12.94866039 104.13166004 -22.24093636 105.54645781 -32.4375 105.4375 C-33.44594971 105.42920166 -34.45439941 105.42090332 -35.4934082 105.41235352 C-47.85609962 105.13172372 -57.91852934 101.25722888 -68 94 C-68 93.34 -68 92.68 -68 92 C-68.87205078 91.62101562 -68.87205078 91.62101562 -69.76171875 91.234375 C-79.49521156 85.86651509 -85.03146948 73.54082658 -88.1015625 63.33984375 C-91.91629332 46.95789222 -89.92559754 31.4841728 -81 17 C-74.26608696 7.42202899 -74.26608696 7.42202899 -70 6 C-70 5.34 -70 4.68 -70 4 C-49.05718127 -11.38248371 -22.42418083 -14.16851227 0 0 Z M-68.65234375 18.734375 C-77.26383567 28.98928141 -79.4148863 41.84840523 -78.30859375 54.81347656 C-77.29800004 61.97398073 -74.29793719 68.61987852 -71 75 C-70.34 75 -69.68 75 -69 75 C-68.59587891 75.88558594 -68.59587891 75.88558594 -68.18359375 76.7890625 C-63.62695756 85.30079874 -54.52901762 90.23405361 -45.63671875 93.07421875 C-31.29348286 96.60019776 -20.0165151 94.14940626 -7 88 C-6.01 87.34 -5.02 86.68 -4 86 C-4 85.34 -4 84.68 -4 84 C-3.34 84 -2.68 84 -2 84 C-2 83.34 -2 82.68 -2 82 C-1.12021484 81.63648438 -1.12021484 81.63648438 -0.22265625 81.265625 C5.96272314 77.74354605 10.59781999 69.60589511 12.6171875 62.97265625 C15.48668381 51.16055156 15.45007015 38.01267863 10 27 C7.93652006 23.7141041 5.61934997 20.8569926 3 18 C1.948125 16.84564453 1.948125 16.84564453 0.875 15.66796875 C-1.93537194 12.69550918 -1.93537194 12.69550918 -5 10 C-5.99 10 -6.98 10 -8 10 C-8 9.34 -8 8.68 -8 8 C-10.06049855 7.18243762 -12.12348853 6.37115266 -14.1875 5.5625 C-15.33605469 5.11003906 -16.48460937 4.65757812 -17.66796875 4.19140625 C-36.3596083 -2.49200531 -55.50074418 4.92985914 -68.65234375 18.734375 Z " fill="#212121" transform="translate(338,244)"/>
<path d="M0 0 C0.80082284 -0.00155999 1.60164568 -0.00311998 2.42673588 -0.00472724 C5.11906316 -0.00872645 7.81133438 -0.00555175 10.50366211 -0.00241089 C12.43024733 -0.00376541 14.35683228 -0.00554562 16.28341675 -0.00772095 C21.52294929 -0.01228926 26.76246219 -0.01050818 32.00199509 -0.00734186 C37.47789311 -0.00481517 42.95378942 -0.00715667 48.4296875 -0.00872803 C57.6265493 -0.01054881 66.82340309 -0.00814579 76.02026367 -0.00338745 C86.66245065 0.00205499 97.30461848 0.00029227 107.946805 -0.00521386 C117.07380239 -0.00974756 126.20079401 -0.01039427 135.32779217 -0.00777519 C140.78340151 -0.00621384 146.23900183 -0.00601478 151.6946106 -0.00931168 C156.82287623 -0.01219412 161.95111709 -0.01020778 167.07938004 -0.00441742 C168.96481408 -0.00309183 170.85025021 -0.00348054 172.73568344 -0.00568008 C175.30282129 -0.00839944 177.86987902 -0.00500074 180.43701172 0 C181.56477319 -0.00334608 181.56477319 -0.00334608 182.71531773 -0.00675976 C185.82563161 0.00504877 188.24377355 0.13540621 191.21850586 1.12698364 C191.90600586 4.43948364 191.90600586 4.43948364 192.21850586 8.12698364 C190.71972382 10.20161441 189.73183938 10.99517634 187.24480754 11.63376498 C186.51822497 11.69050553 185.7916424 11.74724607 185.04304218 11.80570602 C184.24404141 11.87000478 183.44504064 11.93430354 182.62182772 12.00055075 C179.08620662 12.18655114 175.56625955 12.27179194 172.02592468 12.26742554 C171.25334928 12.27039666 170.48077387 12.27336778 169.68478709 12.27642894 C167.12399386 12.28502591 164.56324786 12.2866164 162.00244141 12.28811646 C160.15540977 12.2927506 158.30837908 12.29777606 156.46134949 12.30316162 C151.46590576 12.31622023 146.47047542 12.32271639 141.47501731 12.32717228 C138.35339222 12.33011037 135.23177074 12.33421629 132.11014748 12.33867645 C122.34020973 12.35232697 112.5702803 12.3620086 102.80033368 12.36587834 C91.5254002 12.37036936 80.25058733 12.38797571 68.97569054 12.41687894 C60.25279862 12.43846484 51.52994075 12.44858078 42.80702239 12.44991946 C37.59902504 12.45096864 32.39114145 12.45690193 27.18317223 12.47473907 C22.29197656 12.49116882 17.40098089 12.4934002 12.50976753 12.48460007 C10.71343323 12.48382726 8.91708838 12.48820431 7.12078094 12.49805832 C4.67233617 12.51070483 2.2246079 12.50494156 -0.22383118 12.49447632 C-0.93753901 12.50253272 -1.65124685 12.51058913 -2.3865822 12.51888967 C-5.43827007 12.48829422 -7.53106464 12.26293412 -10.23431683 10.7954216 C-11.78149414 9.12698364 -11.78149414 9.12698364 -12.09399414 6.06448364 C-11.78149414 3.12698364 -11.78149414 3.12698364 -10.78149414 1.12698364 C-7.13535862 -0.08839486 -3.79546778 -0.0112612 0 0 Z " fill="#2D2D2D" transform="translate(157.781494140625,193.87301635742188)"/>
<path d="M0 0 C0.67731299 -0.00226556 1.35462597 -0.00453111 2.05246359 -0.00686532 C4.33874942 -0.01323269 6.62497639 -0.01237422 8.91127014 -0.0115509 C10.54362058 -0.01454069 12.17597031 -0.0179428 13.80831909 -0.02172852 C18.25453712 -0.03059103 22.70073592 -0.03290757 27.14696193 -0.0335443 C30.85245009 -0.03449151 34.55793373 -0.03816763 38.26342016 -0.0417164 C47.00215893 -0.04986949 55.74088739 -0.05229985 64.47962952 -0.05158997 C73.50858732 -0.05098892 82.53748543 -0.06154412 91.56642812 -0.07733363 C99.30569648 -0.09038792 107.04494528 -0.09577476 114.78422457 -0.09513456 C119.41209894 -0.09487895 124.03992029 -0.09776454 128.66778374 -0.10831261 C133.01876939 -0.1179582 137.36965097 -0.11809726 141.72064018 -0.11079597 C143.32107189 -0.10974571 144.92150996 -0.11213901 146.52193069 -0.11815643 C148.69988485 -0.12581735 150.87747423 -0.12127127 153.05541992 -0.11352539 C154.2764186 -0.11407016 155.49741728 -0.11461493 156.75541592 -0.1151762 C159.59120178 0.13371277 159.59120178 0.13371277 161.59120178 2.13371277 C161.92453512 7.4670461 161.92453512 7.4670461 160.59120178 10.13371277 C152.27385054 11.84802973 143.33436985 11.27656712 134.88343811 11.2631073 C133.43668575 11.26446541 131.98993374 11.26624764 130.54318237 11.26841736 C126.64671791 11.27294168 122.75028019 11.27122321 118.85381532 11.26803827 C114.7603106 11.26549012 110.66680804 11.26785888 106.57330322 11.26942444 C99.70499769 11.27123838 92.83670294 11.26885956 85.96839905 11.26408386 C78.04249643 11.25863623 70.11661952 11.26041066 62.19071752 11.26591027 C55.36494726 11.27045575 48.53918471 11.27108511 41.71341342 11.2684716 C37.64554497 11.26691756 33.57768859 11.26669118 29.50982094 11.27000809 C25.687285 11.27290791 21.86478207 11.27087245 18.04224968 11.26511383 C16.64428894 11.26379781 15.24632539 11.26416055 13.84836578 11.2663765 C-0.48728672 11.2869965 -0.48728672 11.2869965 -6.40879822 10.13371277 C-7.89986278 7.15158364 -7.52821289 4.41761619 -7.40879822 1.13371277 C-5.5528282 -0.72225725 -2.47930476 0.00340394 0 0 Z " fill="#202020" transform="translate(153.40879821777344,163.8662872314453)"/>
<path d="M0 0 C1.42371414 -0.00422974 1.42371414 -0.00422974 2.87619019 -0.00854492 C3.91575363 -0.00652069 4.95531708 -0.00449646 6.02638245 -0.00241089 C7.12254883 -0.00416321 8.21871521 -0.00591553 9.34809875 -0.00772095 C12.98119172 -0.01213168 16.61423623 -0.00920398 20.24732971 -0.00582886 C22.76694752 -0.00650217 25.28656527 -0.00747242 27.80618286 -0.00872803 C33.09134091 -0.01020398 38.37648152 -0.00814897 43.66163635 -0.00338745 C49.76973512 0.00205197 55.87780048 0.00029403 61.98589844 -0.00521386 C67.86292704 -0.01030108 73.73994529 -0.00975938 79.61697578 -0.00683212 C82.11727465 -0.00616415 84.61757436 -0.00698676 87.11787224 -0.00931168 C90.61083621 -0.0118464 94.10373578 -0.00798578 97.59669495 -0.00241089 C98.63423416 -0.00443512 99.67177338 -0.00645935 100.74075317 -0.00854492 C101.69271576 -0.0057251 102.64467834 -0.00290527 103.62548828 0 C104.45120551 0.00037703 105.27692274 0.00075405 106.12766171 0.0011425 C108.33472141 0.12466029 110.25728533 0.5147638 112.37623596 1.12698364 C113.81938804 7.38064267 113.81938804 7.38064267 112.06933594 10.32801819 C107.8015369 13.17886781 103.55845122 12.69182906 98.53663635 12.66043091 C96.87994682 12.67335426 96.87994682 12.67335426 95.18978882 12.6865387 C91.53425241 12.70926496 87.8794785 12.70244692 84.22389221 12.69338989 C81.68567679 12.69862266 79.14746332 12.70489785 76.60925293 12.71217346 C71.28709255 12.72259018 65.96520962 12.71832663 60.64308167 12.70339966 C54.49553619 12.68648031 48.34870087 12.70230975 42.20123297 12.73462254 C36.28197985 12.76455434 30.36294736 12.76649981 24.44361687 12.75712395 C21.92738865 12.75630296 19.41114581 12.76319436 16.8949604 12.77789497 C13.37785544 12.79529153 9.86227345 12.78083643 6.3452301 12.75808716 C5.30350647 12.76977936 4.26178284 12.78147156 3.18849182 12.79351807 C-4.67207846 12.68993928 -4.67207846 12.68993928 -7.80932617 9.58753967 C-8.70747292 8.36956444 -8.70747292 8.36956444 -9.62376404 7.12698364 C-8.81126404 4.18948364 -8.81126404 4.18948364 -7.62376404 1.12698364 C-4.75582574 0.17100421 -2.97593561 0.00135944 0 0 Z " fill="#292929" transform="translate(154.62376403808594,223.87301635742188)"/>
<path d="M0 0 C0.82292038 -0.0065712 1.64584076 -0.0131424 2.49369812 -0.01991272 C5.22317592 -0.03966083 7.9525987 -0.05131074 10.68212891 -0.0612793 C12.07854048 -0.06739259 12.07854048 -0.06739259 13.50316238 -0.07362938 C18.42902658 -0.09449508 23.35486287 -0.10879548 28.28076172 -0.11816406 C33.37434404 -0.12923861 38.4674907 -0.16364906 43.56091881 -0.20333576 C47.47281724 -0.22944906 51.38461096 -0.23785111 55.2965889 -0.24144554 C57.17450533 -0.24632403 59.05241671 -0.25797377 60.93024826 -0.27648354 C63.55671744 -0.30076632 66.18204728 -0.29993028 68.80859375 -0.29296875 C69.97452812 -0.31218384 69.97452812 -0.31218384 71.16401672 -0.33178711 C74.67838604 -0.29779052 76.67799269 -0.08073296 79.55947876 2.00715637 C81.03369141 4.17700195 81.03369141 4.17700195 80.84619141 7.36450195 C80.03369141 10.17700195 80.03369141 10.17700195 79.03369141 11.17700195 C76.26430174 11.27217998 73.51991982 11.3025446 70.75024414 11.29052734 C69.44792343 11.29074638 69.44792343 11.29074638 68.11929321 11.29096985 C65.23526554 11.29027041 62.35130161 11.28247658 59.46728516 11.2746582 C57.47331274 11.27279413 55.47933986 11.27137018 53.48536682 11.27037048 C48.22623439 11.26654443 42.96712938 11.25671341 37.70800781 11.2456665 C32.34586966 11.23545426 26.9837271 11.23087326 21.62158203 11.22583008 C11.09227308 11.21509121 0.56298452 11.19801375 -9.96630859 11.17700195 C-12.06005859 5.46606445 -12.06005859 5.46606445 -11.21630859 2.86450195 C-8.43104258 -0.89560717 -4.25601258 0.01464668 0 0 Z " fill="#171717" transform="translate(156.96630859375,253.822998046875)"/>
<path d="M0 0 C4.85044963 4.36540466 7.18115717 7.54410545 7.73828125 14.01953125 C7.90221583 20.74084895 7.64893593 24.86759663 3.5 30.25 C-1.99249101 35.33055418 -6.27919906 36.77106637 -13.67578125 36.6328125 C-19.34852647 35.86389268 -22.97942363 32.81059153 -26.875 28.8125 C-30.07959425 23.75910137 -31.10549013 19.2039863 -30.5 13.25 C-28.5771844 6.9025235 -25.99327874 2.94955507 -20.5 -0.75 C-13.90027887 -3.98319672 -6.47857983 -3.23928991 0 0 Z M-18.5 9.25 C-20.11913451 13.50648762 -20.68789489 17.12263067 -19.9375 21.625 C-18.15322586 24.88323973 -16.97787369 25.93613661 -13.5 27.25 C-9.39763122 27.25 -7.2891021 26.877235 -4.0625 24.3125 C-1.82626494 19.92947929 -1.45757475 16.06726821 -2.5 11.25 C-4.25713073 8.54209305 -5.54552176 7.8913768 -8.5 6.25 C-12.8201243 5.55878011 -15.61356653 5.84813198 -18.5 9.25 Z " fill="#212121" transform="translate(268.5,109.75)"/>
<path d="M0 0 C1.19554658 3.58663974 1.04051256 6.75569095 0.9140625 10.4765625 C0.89282318 11.20241547 0.87158386 11.92826843 0.84970093 12.67611694 C0.8035014 14.20766309 0.75457829 15.73912917 0.703125 17.27050781 C0.6250704 19.62287835 0.55803279 21.97538452 0.4921875 24.328125 C0.44597083 25.81512477 0.39911784 27.30210494 0.3515625 28.7890625 C0.33171295 29.49632477 0.3118634 30.20358704 0.29141235 30.93228149 C0.11509958 35.88490042 0.11509958 35.88490042 -1 37 C-3.8125 37.3125 -3.8125 37.3125 -7 37 C-10.74096327 33.85914959 -13.40026847 29.84506547 -16.1875 25.875 C-16.63802734 25.24207031 -17.08855469 24.60914063 -17.55273438 23.95703125 C-20.84944994 19.30110013 -20.84944994 19.30110013 -22 17 C-22.33 23.6 -22.66 30.2 -23 37 C-25.64 37 -28.28 37 -31 37 C-32.76072584 35.23927416 -32.12834784 32.9210371 -32.13894653 30.5760498 C-32.1369223 29.81876587 -32.13489807 29.06148193 -32.1328125 28.28125 C-32.13376923 27.50817505 -32.13472595 26.7351001 -32.13571167 25.93859863 C-32.13639341 24.30102456 -32.13453957 22.66344781 -32.13037109 21.02587891 C-32.12502271 18.51068079 -32.13031626 15.99566127 -32.13671875 13.48046875 C-32.13605797 11.89322877 -32.1347768 10.3059889 -32.1328125 8.71875 C-32.13483673 7.96146606 -32.13686096 7.20418213 -32.13894653 6.4239502 C-32.11495132 1.11495132 -32.11495132 1.11495132 -31 0 C-28.32941149 -0.14115161 -25.67567762 -0.04247107 -23 0 C-23 0.66 -23 1.32 -23 2 C-22.34 2 -21.68 2 -21 2 C-18 6.38461538 -18 6.38461538 -18 9 C-17.34 9 -16.68 9 -16 9 C-14 12 -14 12 -14 15 C-13.34 15 -12.68 15 -12 15 C-11.34 15.99 -10.68 16.98 -10 18 C-9.67 12.06 -9.34 6.12 -9 0 C-2 -1 -2 -1 0 0 Z " fill="#323232" transform="translate(199,108)"/>
<path d="M0 0 C1.39289879 -0.01449642 2.78624869 -0.00119125 4.17878723 0.03364563 C5.32061211 0.03255043 5.32061211 0.03255043 6.48550415 0.03143311 C9.00223497 0.03491735 11.51711606 0.07381468 14.03352356 0.11299133 C15.77800485 0.12231656 17.52249923 0.12943405 19.26699829 0.13442993 C23.85899496 0.15352275 28.4502011 0.20264274 33.04188538 0.25794983 C37.72714035 0.30909337 42.41252304 0.33193348 47.09797668 0.35713196 C56.29168343 0.41075965 65.48480339 0.49609974 74.67805481 0.60127258 C74.67805481 1.26127258 74.67805481 1.92127258 74.67805481 2.60127258 C75.33805481 2.60127258 75.99805481 2.60127258 76.67805481 2.60127258 C76.80305481 5.47627258 76.80305481 5.47627258 76.67805481 8.60127258 C71.35647896 13.92284844 57.31962492 11.72092513 50.07220459 11.74021912 C48.8477211 11.73819489 47.62323761 11.73617065 46.36164856 11.73408508 C44.41150597 11.73552017 44.41150597 11.73552017 42.42196655 11.73698425 C39.70189697 11.73844121 36.98186069 11.7363691 34.26179504 11.73164368 C30.78531269 11.7258959 27.30890671 11.72926962 23.83242702 11.73521614 C20.48799474 11.73969909 17.14358301 11.73656263 13.79914856 11.73408508 C12.55644699 11.73610931 11.31374542 11.73813354 10.03338623 11.74021912 C8.87770645 11.73706696 7.72202667 11.73391479 6.53132629 11.73066711 C5.51876266 11.72987152 4.50619904 11.72907593 3.46295166 11.72825623 C0.73369092 11.60380944 -1.69275745 11.3477358 -4.32194519 10.60127258 C-5.82194519 8.35127258 -5.82194519 8.35127258 -6.32194519 5.60127258 C-4.85224212 1.7263725 -4.15424079 0.75191821 0 0 Z " fill="#161616" transform="translate(151.3219451904297,284.3987274169922)"/>
<path d="M0 0 C1.12459122 -0.00960754 2.24918243 -0.01921509 3.40785217 -0.02911377 C5.20808083 -0.03548859 5.20808083 -0.03548859 7.04467773 -0.04199219 C8.28950424 -0.04769226 9.53433075 -0.05339233 10.81687927 -0.05926514 C13.44350336 -0.06869354 16.07013917 -0.07524052 18.69677734 -0.07910156 C21.38636701 -0.08350618 24.07563944 -0.09748079 26.76513672 -0.12011719 C30.65008277 -0.15052586 34.53462607 -0.16114161 38.41967773 -0.16699219 C40.22294273 -0.18551239 40.22294273 -0.18551239 42.06263733 -0.20440674 C43.18407639 -0.20140564 44.30551544 -0.19840454 45.4609375 -0.1953125 C46.44433609 -0.19895813 47.42773468 -0.20260376 48.44093323 -0.20635986 C51.70295832 0.23358197 53.57863942 1.13827549 56.16577148 3.16113281 C56.66577148 6.72363281 56.66577148 6.72363281 56.16577148 10.16113281 C52.61785397 12.52641116 51.11225621 12.41404577 46.90600586 12.41992188 C44.96884705 12.42937836 44.96884705 12.42937836 42.99255371 12.43902588 C41.58154158 12.43544609 40.1705307 12.43134413 38.75952148 12.42675781 C37.31367935 12.42810505 35.86783765 12.43004607 34.42199707 12.43255615 C31.39237147 12.43550469 28.36286384 12.43121854 25.33325195 12.421875 C21.44926311 12.41048053 17.56555067 12.41704146 13.68157196 12.42901993 C10.69616614 12.43624588 7.71082588 12.43394723 4.72541809 12.42876434 C3.29327868 12.42742988 1.86113332 12.42906847 0.42900085 12.43372345 C-1.57215258 12.43880044 -3.57332686 12.42969067 -5.57446289 12.41992188 C-6.71347046 12.41833069 -7.85247803 12.4167395 -9.02600098 12.4151001 C-11.83422852 12.16113281 -11.83422852 12.16113281 -14.83422852 10.16113281 C-15.230349 7.05818904 -15.38605892 5.05019291 -13.70922852 2.34863281 C-9.7010936 -0.18985263 -4.62223743 0.0320675 0 0 Z " fill="#1D1D1D" transform="translate(160.834228515625,313.8388671875)"/>
<path d="M0 0 C3.18297664 2.31071862 3.99936513 4.05192126 4.875 7.8671875 C4.91625 8.9190625 4.9575 9.9709375 5 11.0546875 C-0.31304348 12.1172962 -0.31304348 12.1172962 -3 12.0546875 C-3.639375 11.3946875 -4.27875 10.7346875 -4.9375 10.0546875 C-6.78914732 7.80496112 -6.78914732 7.80496112 -9.23828125 8.0078125 C-11.51511415 8.27692494 -13.75072779 8.61252288 -16 9.0546875 C-17.24380436 14.1853805 -17.79589139 18.90109903 -15.9375 23.9296875 C-14.05388208 26.35627535 -14.05388208 26.35627535 -10.5625 27.1171875 C-6.94916611 27.47306745 -6.94916611 27.47306745 -5.0625 25.0546875 C-3 23.0546875 -3 23.0546875 -0.98046875 23.0078125 C1.02564111 23.27482537 3.01549933 23.65778737 5 24.0546875 C4.51176471 30.40174632 4.51176471 30.40174632 2.1875 33.3671875 C-2.49200097 36.97708825 -6.25270711 37.61746382 -12.109375 37.4921875 C-17.77888951 36.63409882 -21.88389331 33.67980363 -25.4453125 29.26171875 C-28.61303585 23.88988021 -28.89247153 18.13409753 -28 12.0546875 C-25.97455386 6.04751067 -23.21211731 2.16074615 -17.5 -0.6953125 C-11.79161914 -2.67534129 -5.51203676 -2.60529862 0 0 Z " fill="#232323" transform="translate(322,108.9453125)"/>
<path d="M0 0 C2.97 0 5.94 0 9 0 C12.52186742 7.16517854 14.40644907 14.18918596 16 22 C16.66 22 17.32 22 18 22 C18.0825 21.0925 18.165 20.185 18.25 19.25 C19.18871926 12.61094202 21.27919158 5.58121263 25 0 C26.9453125 -0.29296875 26.9453125 -0.29296875 29.125 -0.1875 C30.40375 -0.125625 31.6825 -0.06375 33 0 C34.3996094 3.7592073 33.56362859 6.10483091 32.25 9.8125 C31.87230469 10.88242188 31.49460938 11.95234375 31.10546875 13.0546875 C29.84189797 16.42123296 28.44431286 19.70696668 27 23 C25.67981696 26.42920611 24.37873323 29.86506735 23.0859375 33.3046875 C22 36 22 36 21 37 C13.47761194 37.23880597 13.47761194 37.23880597 11 36 C9.93486423 33.34161101 8.97293186 30.71107008 8.0625 28 C7.79598633 27.22487061 7.52947266 26.44974121 7.25488281 25.65112305 C6.49556517 23.43660148 5.74601329 21.21903315 5 19 C4.67386719 18.03707031 4.34773437 17.07414062 4.01171875 16.08203125 C3.53207453 14.65293744 3.05739786 13.22215735 2.58984375 11.7890625 C2.02599509 10.07884604 1.42018953 8.38263394 0.8125 6.6875 C0 4 0 4 0 0 Z " fill="#232323" transform="translate(204,108)"/>
<path d="M0 0 C3.47914941 -0.02887814 6.95826831 -0.04675687 10.4375 -0.0625 C11.92733398 -0.07506836 11.92733398 -0.07506836 13.44726562 -0.08789062 C14.39150391 -0.09111328 15.33574219 -0.09433594 16.30859375 -0.09765625 C17.62041626 -0.10551147 17.62041626 -0.10551147 18.95874023 -0.11352539 C21 0 21 0 22 1 C22.125 4 22.125 4 22 7 C21 8 21 8 18.27734375 8.09765625 C16.62412109 8.08025391 16.62412109 8.08025391 14.9375 8.0625 C13.28041016 8.04896484 13.28041016 8.04896484 11.58984375 8.03515625 C10.73519531 8.02355469 9.88054687 8.01195313 9 8 C9 9.98 9 11.96 9 14 C9.69867188 13.98839844 10.39734375 13.97679688 11.1171875 13.96484375 C12.02726562 13.95582031 12.93734375 13.94679688 13.875 13.9375 C14.77992188 13.92589844 15.68484375 13.91429688 16.6171875 13.90234375 C19 14 19 14 21 15 C22.09036928 17.9737344 22.03864166 18.88407501 21 22 C18.47524538 23.26237731 16.68799534 23.09856404 13.875 23.0625 C12.96492188 23.05347656 12.05484375 23.04445312 11.1171875 23.03515625 C10.06917969 23.01775391 10.06917969 23.01775391 9 23 C9 24.65 9 26.3 9 28 C9.75925781 27.97679687 10.51851563 27.95359375 11.30078125 27.9296875 C12.29464844 27.91164062 13.28851563 27.89359375 14.3125 27.875 C15.29863281 27.85179687 16.28476562 27.82859375 17.30078125 27.8046875 C20 28 20 28 23 30 C23.1875 33.125 23.1875 33.125 23 36 C20.61561291 37.19219354 19.12343998 37.12916022 16.46484375 37.1328125 C15.57345703 37.13410156 14.68207031 37.13539063 13.76367188 37.13671875 C12.83103516 37.13285156 11.89839844 37.12898438 10.9375 37.125 C10.00099609 37.12886719 9.06449219 37.13273437 8.09960938 37.13671875 C7.20951172 37.13542969 6.31941406 37.13414062 5.40234375 37.1328125 C4.17245728 37.13112061 4.17245728 37.13112061 2.91772461 37.12939453 C1 37 1 37 0 36 C-0.08855161 33.3337397 -0.11524673 30.69352886 -0.09765625 28.02734375 C-0.0962413 27.22970108 -0.09482635 26.43205841 -0.09336853 25.61024475 C-0.08775316 23.05262565 -0.07519812 20.49509282 -0.0625 17.9375 C-0.05748698 16.20768355 -0.05292373 14.47786574 -0.04882812 12.74804688 C-0.03777875 8.49866447 -0.02050386 4.24934688 0 0 Z " fill="#202020" transform="translate(332,108)"/>
<path d="M0 0 C0.33 0 0.66 0 1 0 C1.33 2.31 1.66 4.62 2 7 C1.34 7 0.68 7 0 7 C0 7.66 0 8.32 0 9 C0.66 9.33 1.32 9.66 2 10 C1.67 10.33 1.34 10.66 1 11 C2.32 11 3.64 11 5 11 C5.66 9.68 6.32 8.36 7 7 C7.66 7.33 8.32 7.66 9 8 C9.66 7.01 10.32 6.02 11 5 C11.01417969 5.77601563 11.02835937 6.55203125 11.04296875 7.3515625 C11.46597608 16.93210691 13.67996775 25.66380287 18.15234375 34.19921875 C19.37818191 36.80341871 19.12874263 39.16766209 19 42 C17.35 42.66 15.7 43.32 14 44 C14.66 45.65 15.32 47.3 16 49 C5.13967028 39.09793467 -0.35338836 25.78822756 -1.15234375 11.22265625 C-1.20440613 7.28326954 -1.08348705 3.80520653 0 0 Z " fill="#272727" transform="translate(249,283)"/>
<path d="M0 0 C0.721875 0.00257812 1.44375 0.00515625 2.1875 0.0078125 C2.909375 0.00523438 3.63125 0.00265625 4.375 0 C6.1875 0.1328125 6.1875 0.1328125 7.1875 1.1328125 C7.28841475 3.71470696 7.32721499 6.2692775 7.3203125 8.8515625 C7.32126923 9.62463745 7.32222595 10.3977124 7.32321167 11.19421387 C7.32389341 12.83178794 7.32203957 14.46936469 7.31787109 16.10693359 C7.31252271 18.62213171 7.31781626 21.13715123 7.32421875 23.65234375 C7.32355797 25.23958373 7.3222768 26.8268236 7.3203125 28.4140625 C7.32233673 29.17134644 7.32436096 29.92863037 7.32644653 30.7088623 C7.30245132 36.01786118 7.30245132 36.01786118 6.1875 37.1328125 C-0.33792373 37.37010064 -0.33792373 37.37010064 -2.8125 36.1328125 C-2.83715098 31.16658901 -2.85533649 26.20040084 -2.86743164 21.23413086 C-2.8724719 19.54336934 -2.87930405 17.85261221 -2.88793945 16.16186523 C-2.90001857 13.73680543 -2.90573123 11.31180306 -2.91015625 8.88671875 C-2.91531754 8.12629776 -2.92047882 7.36587677 -2.92579651 6.58241272 C-2.92599238 4.7654868 -2.87447277 2.94868123 -2.8125 1.1328125 C-1.8125 0.1328125 -1.8125 0.1328125 0 0 Z " fill="#363636" transform="translate(153.8125,107.8671875)"/>
<path d="M0 0 C6.15234375 -0.09765625 6.15234375 -0.09765625 8 0 C9.76072584 1.76072584 9.12834784 4.0789629 9.13894653 6.4239502 C9.1369223 7.18123413 9.13489807 7.93851807 9.1328125 8.71875 C9.13376923 9.49182495 9.13472595 10.2648999 9.13571167 11.06140137 C9.13639341 12.69897544 9.13453957 14.33655219 9.13037109 15.97412109 C9.12502271 18.48931921 9.13031626 21.00433873 9.13671875 23.51953125 C9.13605797 25.10677123 9.1347768 26.6940111 9.1328125 28.28125 C9.13483673 29.03853394 9.13686096 29.79581787 9.13894653 30.5760498 C9.11495132 35.88504868 9.11495132 35.88504868 8 37 C6.1875 37.1328125 6.1875 37.1328125 4 37.125 C3.278125 37.12757813 2.55625 37.13015625 1.8125 37.1328125 C0 37 0 37 -1 36 C-1.1009003 33.50243196 -1.13971766 31.03312358 -1.1328125 28.53515625 C-1.13376923 27.78664902 -1.13472595 27.03814178 -1.13571167 26.26695251 C-1.13639346 24.68065304 -1.13453922 23.09435079 -1.13037109 21.50805664 C-1.12503024 19.07627091 -1.1303122 16.64467051 -1.13671875 14.21289062 C-1.13605782 12.67447876 -1.13477635 11.13606701 -1.1328125 9.59765625 C-1.13483673 8.86740738 -1.13686096 8.13715851 -1.13894653 7.38478088 C-1.11495668 2.22991336 -1.11495668 2.22991336 0 0 Z " fill="#353535" transform="translate(281,108)"/>
<path d="M0 0 C45.87 0 91.74 0 139 0 C138.67 0.66 138.34 1.32 138 2 C131.22718985 2.14523881 124.45431731 2.28726446 117.68139648 2.42724609 C115.38613424 2.47504067 113.09088617 2.52352198 110.7956543 2.57275391 C91.52151587 2.98544029 72.30497273 3.17366834 53.034729 2.57247925 C35.68417255 2.0367176 18.35823872 1.87193127 1 2 C0.67 1.34 0.34 0.68 0 0 Z " fill="#040404" transform="translate(217,75)"/>
<path d="M0 0 C2.79026818 3.37769306 3.20535805 5.54913027 3.375 9.875 C-2.484375 11.046875 -2.484375 11.046875 -4.625 10.875 C-5.24375 10.2459375 -5.8625 9.616875 -6.5 8.96875 C-9.22625781 6.28258421 -11.12364273 6.11430747 -14.875 5.625 C-16.49148438 5.40070313 -16.49148438 5.40070313 -18.140625 5.171875 C-18.96046875 5.07390625 -19.7803125 4.9759375 -20.625 4.875 C-20.04915568 2.48935923 -19.40272405 0.20817216 -18.625 -2.125 C-13.0405048 -4.37395961 -4.83966542 -3.57101526 0 0 Z " fill="#161616" transform="translate(323.625,110.125)"/>
<path d="M0 0 C0.33 0 0.66 0 1 0 C1 24.09 1 48.18 1 73 C0.01 72.67 -0.98 72.34 -2 72 C-1.89265809 62.75994308 -1.78005772 53.51996984 -1.66066074 44.28006077 C-1.60539264 39.9900379 -1.55196657 35.70000826 -1.50268555 31.40991211 C-1.45509914 27.27314564 -1.40275868 23.13646464 -1.34705925 18.99979973 C-1.32660966 17.41810153 -1.30790097 15.83637988 -1.29092598 14.25464058 C-1.2669393 12.04670822 -1.23687744 9.8389388 -1.20532227 7.63110352 C-1.18977798 6.37201675 -1.1742337 5.11292999 -1.15821838 3.81568909 C-1 1 -1 1 0 0 Z " fill="#080808" transform="translate(123,316)"/>
<path d="M0 0 C0.33 0.99 0.66 1.98 1 3 C1.66 3 2.32 3 3 3 C4.5121867 6.02437339 4.17263369 8.66241534 4 12 C3 14.4375 3 14.4375 2 16 C1.01 16 0.02 16 -1 16 C-2.02104551 16.97850195 -3.0206121 17.97980427 -4 19 C-4.99 19.33 -5.98 19.66 -7 20 C-7 18.02 -7 16.04 -7 14 C-6.34 14 -5.68 14 -5 14 C-5.33 13.34 -5.66 12.68 -6 12 C-6.13415472 9.3276379 -6.04318541 6.67749512 -6 4 C-5.34 3.67 -4.68 3.34 -4 3 C-4 2.34 -4 1.68 -4 1 C-2.68 0.67 -1.36 0.34 0 0 Z " fill="#161616" transform="translate(256,276)"/>
<path d="M0 0 C0.13510253 2.91821463 0.2341305 5.83017652 0.3125 8.75 C0.3753418 9.9875 0.3753418 9.9875 0.43945312 11.25 C0.48682093 13.59944334 0.46944887 15.6959427 0 18 C-2.45703125 20.390625 -2.45703125 20.390625 -5 22 C-5.33 22.99 -5.66 23.98 -6 25 C-6.66 24.67 -7.32 24.34 -8 24 C-7.67 16.41 -7.34 8.82 -7 1 C-1 0 -1 0 0 0 Z " fill="#141414" transform="translate(198,107)"/>
<path d="M0 0 C2.97 0 5.94 0 9 0 C9.69937202 1.4317616 10.38412718 2.87067032 11.0625 4.3125 C11.44535156 5.11300781 11.82820312 5.91351563 12.22265625 6.73828125 C13 9 13 9 12 12 C10.68 11.34 9.36 10.68 8 10 C6.95785309 14.61507774 6.95785309 14.61507774 8 19 C7.34 19.99 6.68 20.98 6 22 C0 6.57142857 0 6.57142857 0 0 Z " fill="#393939" transform="translate(204,108)"/>
<path d="M0 0 C2.40759871 1.73046157 3.83393894 3.07879814 4.37109375 6.05859375 C4.51606637 11.11557989 3.70167592 14.60977663 1 19 C-0.5 17.625 -0.5 17.625 -2 16 C-2 15.34 -2 14.68 -2 14 C-3.32 14.33 -4.64 14.66 -6 15 C-7.13732426 11.59598052 -6.83989957 9.22543336 -6.0625 5.75 C-5.86785156 4.85796875 -5.67320312 3.9659375 -5.47265625 3.046875 C-5.31667969 2.37140625 -5.16070312 1.6959375 -5 1 C-4.01 1 -3.02 1 -2 1 C-1.34 0.67 -0.68 0.34 0 0 Z " fill="#272727" transform="translate(272,120)"/>
<path d="M0 0 C5.40489519 1.52012677 8.98492628 5.27385218 13 9 C12.34 10.32 11.68 11.64 11 13 C10.34 13 9.68 13 9 13 C8.71125 13.78375 8.4225 14.5675 8.125 15.375 C7 18 7 18 5 20 C3.4375 17.6875 3.4375 17.6875 2 15 C2.33 14.01 2.66 13.02 3 12 C3 11.01 3 10.02 3 9 C4 6.8125 4 6.8125 5 5 C3.02 4.01 1.04 3.02 -1 2 C-0.67 1.34 -0.34 0.68 0 0 Z " fill="#2B2B2B" transform="translate(368,78)"/>
<path d="M0 0 C0 1.66666667 0 3.33333333 0 5 C1.98 5.66 3.96 6.32 6 7 C5.360625 7.226875 4.72125 7.45375 4.0625 7.6875 C1.72806339 8.85250896 1.72806339 8.85250896 1.25 11.625 C1.1675 12.40875 1.085 13.1925 1 14 C-1 10.25 -1 10.25 -1 8 C-1.66 7.67 -2.32 7.34 -3 7 C-3.33 8.65 -3.66 10.3 -4 12 C-4.928125 12.12375 -4.928125 12.12375 -5.875 12.25 C-8.18437567 12.81258459 -8.18437567 12.81258459 -9.25 15.0625 C-9.62125 16.0215625 -9.62125 16.0215625 -10 17 C-9.59754037 11.16433541 -8.87546456 7.62902712 -5 3 C-2.25 1.125 -2.25 1.125 0 0 Z " fill="#181818" transform="translate(304,109)"/>
<path d="M0 0 C1.77049689 -0.05410687 3.54146849 -0.09284119 5.3125 -0.125 C6.29863281 -0.14820313 7.28476562 -0.17140625 8.30078125 -0.1953125 C11 0 11 0 14 2 C14.1875 5.125 14.1875 5.125 14 8 C11.59940183 9.20029908 10.10639351 9.11459743 7.4296875 9.09765625 C6.53378906 9.09443359 5.63789063 9.09121094 4.71484375 9.08789062 C3.77769531 9.07951172 2.84054687 9.07113281 1.875 9.0625 C0.93011719 9.05798828 -0.01476562 9.05347656 -0.98828125 9.04882812 C-3.32558387 9.03702357 -5.66276061 9.02055759 -8 9 C-8 8.67 -8 8.34 -8 8 C-7.19175781 7.93941406 -6.38351562 7.87882813 -5.55078125 7.81640625 C-3.94783203 7.69072266 -3.94783203 7.69072266 -2.3125 7.5625 C-1.25675781 7.48128906 -0.20101563 7.40007812 0.88671875 7.31640625 C3.65086297 7.03548319 6.28945741 6.59843148 9 6 C9.33 4.68 9.66 3.36 10 2 C6.7 2 3.4 2 0 2 C0 1.34 0 0.68 0 0 Z " fill="#434343" transform="translate(341,136)"/>
<path d="M0 0 C4.92307692 4.30769231 4.92307692 4.30769231 5.3125 7.8125 C5.209375 8.534375 5.10625 9.25625 5 10 C-0.26362039 11.05272408 -0.26362039 11.05272408 -3 11 C-5.1875 9.125 -5.1875 9.125 -7 7 C-9.64184541 6.20318682 -9.64184541 6.20318682 -12 6 C-12 5.67 -12 5.34 -12 5 C-10.37585622 4.80522261 -8.75063577 4.61940542 -7.125 4.4375 C-6.22007812 4.33308594 -5.31515625 4.22867188 -4.3828125 4.12109375 C-2 4 -2 4 0 5 C0.33 4.01 0.66 3.02 1 2 C0.34 1.67 -0.32 1.34 -1 1 C-0.67 0.67 -0.34 0.34 0 0 Z " fill="#1F1F1F" transform="translate(322,110)"/>
<path d="M0 0 C0.99 0.33 1.98 0.66 3 1 C3.33 3.31 3.66 5.62 4 8 C3.01 8.495 3.01 8.495 2 9 C1.34 7.68 0.68 6.36 0 5 C-2.04836882 5.56362302 -2.04836882 5.56362302 -4 7 C-4.81584568 10.05908413 -4.81584568 10.05908413 -5 13 C-5.33 13 -5.66 13 -6 13 C-6.103125 11.7625 -6.20625 10.525 -6.3125 9.25 C-6.73801682 5.7207134 -7.48112592 3.62839034 -10 1 C-2.25 0.875 -2.25 0.875 0 2 C0 1.34 0 0.68 0 0 Z " fill="#333333" transform="translate(272,116)"/>
<path d="M0 0 C2 1.5625 2 1.5625 4 4 C4.25 7.75 4.25 7.75 4 11 C3.01 11 2.02 11 1 11 C1 10.01 1 9.02 1 8 C0.01 8.495 0.01 8.495 -1 9 C-1 8.01 -1 7.02 -1 6 C-1.66 5.67 -2.32 5.34 -3 5 C-3.33 6.65 -3.66 8.3 -4 10 C-4.66 9.67 -5.32 9.34 -6 9 C-5.67 6.36 -5.34 3.72 -5 1 C-4.01 1 -3.02 1 -2 1 C-1.34 0.67 -0.68 0.34 0 0 Z " fill="#101010" transform="translate(272,120)"/>
<path d="M0 0 C0.94101563 0.00322266 1.88203125 0.00644531 2.8515625 0.00976562 C3.83640625 0.01814453 4.82125 0.02652344 5.8359375 0.03515625 C6.82851562 0.03966797 7.82109375 0.04417969 8.84375 0.04882812 C11.2995391 0.0606348 13.75520854 0.07710225 16.2109375 0.09765625 C15.8809375 0.75765625 15.5509375 1.41765625 15.2109375 2.09765625 C8.9409375 2.09765625 2.6709375 2.09765625 -3.7890625 2.09765625 C-3.7890625 2.75765625 -3.7890625 3.41765625 -3.7890625 4.09765625 C-5.1090625 4.42765625 -6.4290625 4.75765625 -7.7890625 5.09765625 C-7.4140625 3.16015625 -7.4140625 3.16015625 -6.7890625 1.09765625 C-4.33631109 -0.12871945 -2.7384844 -0.01649689 0 0 Z " fill="#090909" transform="translate(153.7890625,253.90234375)"/>
<path d="M0 0 C0.639375 0.165 1.27875 0.33 1.9375 0.5 C4.04582216 1.24598544 4.04582216 1.24598544 6 0 C8.01927511 0.60578253 10.02253397 1.26919734 12 2 C11.625 3.9375 11.625 3.9375 11 6 C10.01 6.495 10.01 6.495 9 7 C8.67 7.66 8.34 8.32 8 9 C7.60167969 8.59007812 7.20335937 8.18015625 6.79296875 7.7578125 C6.26316406 7.21898437 5.73335938 6.68015625 5.1875 6.125 C4.66542969 5.59132813 4.14335937 5.05765625 3.60546875 4.5078125 C1.86740096 2.79223439 1.86740096 2.79223439 -1 1 C-0.67 0.67 -0.34 0.34 0 0 Z " fill="#343434" transform="translate(331,252)"/>
<path d="M0 0 C-1.65 0.33 -3.3 0.66 -5 1 C-4.67 1.99 -4.34 2.98 -4 4 C-2.02 4 -0.04 4 2 4 C2 4.66 2 5.32 2 6 C-6.57142857 7.42857143 -6.57142857 7.42857143 -10 5 C-9.25 2.0625 -9.25 2.0625 -8 -1 C-4.81102878 -2.70078465 -2.96037012 -1.79736757 0 0 Z " fill="#111111" transform="translate(313,109)"/>
<path d="M0 0 C2.97 0 5.94 0 9 0 C8.67 1.32 8.34 2.64 8 4 C4.62176024 5.87679987 1.82367701 6.21849583 -2 6 C-1.34 4.02 -0.68 2.04 0 0 Z " fill="#171717" transform="translate(342,138)"/>
<path d="M0 0 C2.375 0.6875 2.375 0.6875 5 2 C6.3125 4.625 6.3125 4.625 7 7 C4.36 7.33 1.72 7.66 -1 8 C-0.67 5.36 -0.34 2.72 0 0 Z " fill="#181818" transform="translate(211,117)"/>
<path d="M0 0 C2.97 0 5.94 0 9 0 C9.33 1.65 9.66 3.3 10 5 C9.01 5.495 9.01 5.495 8 6 C7.01 5.67 6.02 5.34 5 5 C4.67 4.34 4.34 3.68 4 3 C3.01 3.66 2.02 4.32 1 5 C0.67 3.35 0.34 1.7 0 0 Z " fill="#1D1D1D" transform="translate(204,108)"/>
<path d="M0 0 C2.97 0.33 5.94 0.66 9 1 C9 1.33 9 1.66 9 2 C7.35 2 5.7 2 4 2 C4 3.32 4 4.64 4 6 C2.02 6.33 0.04 6.66 -2 7 C-2.66 5.68 -3.32 4.36 -4 3 C-2.68 2.34 -1.36 1.68 0 1 C0 0.67 0 0.34 0 0 Z " fill="#212121" transform="translate(311,107)"/>
<path d="M0 0 C0.33 0 0.66 0 1 0 C1.125 2.375 1.125 2.375 1 5 C0.34 5.66 -0.32 6.32 -1 7 C-1 8.32 -1 9.64 -1 11 C-1.66 11 -2.32 11 -3 11 C-3 12.98 -3 14.96 -3 17 C-3.99 17 -4.98 17 -6 17 C-5.57664615 10.50857435 -3.08900201 5.66507011 0 0 Z " fill="#414141" transform="translate(256,263)"/>
<path d="M0 0 C1.32 0 2.64 0 4 0 C3.32902328 4.19360449 1.1441606 7.40334352 -1 11 C-2.4606285 8.35261084 -3 7.10551666 -3 4 C-2.34 3.67 -1.68 3.34 -1 3 C-0.67 2.01 -0.34 1.02 0 0 Z " fill="#373737" transform="translate(151,401)"/>
<path d="M0 0 C0 0.99 0 1.98 0 3 C-0.7425 3.515625 -1.485 4.03125 -2.25 4.5625 C-6.1572515 8.02574565 -7.34014523 12.14098379 -9 17 C-9.33 17 -9.66 17 -10 17 C-9.59754037 11.16433541 -8.87546456 7.62902712 -5 3 C-2.25 1.125 -2.25 1.125 0 0 Z " fill="#4E4E4E" transform="translate(304,109)"/>
<path d="M0 0 C0 0.66 0 1.32 0 2 C-2.31 1.67 -4.62 1.34 -7 1 C-7.33 1.66 -7.66 2.32 -8 3 C-8.66 3 -9.32 3 -10 3 C-10.33 3.66 -10.66 4.32 -11 5 C-11 1.84918025 -10.72101535 0.58152302 -9 -2 C-4.94287628 -3.64820651 -3.5652911 -2.37686073 0 0 Z " fill="#131313" transform="translate(355,318)"/>
<path d="M0 0 C0.99 0.33 1.98 0.66 3 1 C3 6.28 3 11.56 3 17 C2.67 17 2.34 17 2 17 C1.66592662 14.35425814 1.33270624 11.70841381 1 9.0625 C0.90460938 8.30775391 0.80921875 7.55300781 0.7109375 6.77539062 C0 1.11328125 0 1.11328125 0 0 Z " fill="#252525" transform="translate(121,232)"/>
<path d="M0 0 C0.99 0.33 1.98 0.66 3 1 C3.25 8.625 3.25 8.625 1 12 C-0.47075246 7.58774263 -1.36884358 4.51718381 0 0 Z " fill="#0F0F0F" transform="translate(301,116)"/>
<path d="M0 0 C0.66 0 1.32 0 2 0 C1 3 1 3 -1 4 C-1.680625 5.2065625 -1.680625 5.2065625 -2.375 6.4375 C-4.07868328 9.12407748 -5.08653091 9.89489103 -8 11 C-7.34 9.35 -6.68 7.7 -6 6 C-5.34 6 -4.68 6 -4 6 C-3.34 4.68 -2.68 3.36 -2 2 C-1.34 2 -0.68 2 0 2 C0 1.34 0 0.68 0 0 Z " fill="#454545" transform="translate(235,383)"/>
<path d="M0 0 C0.99 0.33 1.98 0.66 3 1 C3 1.99 3 2.98 3 4 C3.66 4.33 4.32 4.66 5 5 C5 5.99 5 6.98 5 8 C2.08482708 6.92598892 0.22189824 6.22189824 -2 4 C-1.34 2.68 -0.68 1.36 0 0 Z " fill="#161616" transform="translate(275,246)"/>
<path d="M0 0 C0.66 0.99 1.32 1.98 2 3 C0.35 4.98 -1.3 6.96 -3 9 C-4.65 8.67 -6.3 8.34 -8 8 C-7.01 7.67 -6.02 7.34 -5 7 C-5 6.34 -5 5.68 -5 5 C-3.37446717 3.29319053 -1.70884005 1.62339805 0 0 Z " fill="#383838" transform="translate(302,399)"/>
<path d="M0 0 C2 2 2 2 2.1953125 4.6015625 C2.17210938 5.59929687 2.14890625 6.59703125 2.125 7.625 C2.10695313 8.62789062 2.08890625 9.63078125 2.0703125 10.6640625 C2.03550781 11.82035156 2.03550781 11.82035156 2 13 C1.67 12.34 1.34 11.68 1 11 C0.34 11 -0.32 11 -1 11 C-1.125 6.25 -1.125 6.25 0 4 C0 2.68 0 1.36 0 0 Z " fill="#0C0C0C" transform="translate(122,166)"/>
<path d="M0 0 C0.66 0 1.32 0 2 0 C2.38885039 1.78871178 2.76069196 3.58112874 3.125 5.375 C3.33382812 6.37273437 3.54265625 7.37046875 3.7578125 8.3984375 C3.83773437 9.25695312 3.91765625 10.11546875 4 11 C3.34 11.66 2.68 12.32 2 13 C0.24252386 8.49646738 -0.19294408 4.82360189 0 0 Z " fill="#565656" transform="translate(238,123)"/>
<path d="M0 0 C0.33 0 0.66 0 1 0 C1 1.65 1 3.3 1 5 C2.32 5.33 3.64 5.66 5 6 C3.71937515 7.7074998 2.38232443 9.37373596 1 11 C0.34 11 -0.32 11 -1 11 C-0.67 7.37 -0.34 3.74 0 0 Z " fill="#0E0E0E" transform="translate(353,286)"/>
<path d="M0 0 C0.66 0.66 1.32 1.32 2 2 C1.34 3.32 0.68 4.64 0 6 C-1.65 6 -3.3 6 -5 6 C-5 4.68 -5 3.36 -5 2 C-3.35 1.34 -1.7 0.68 0 0 Z " fill="#2D2D2D" transform="translate(318,140)"/>
<path d="M0 0 C4.92307692 4.30769231 4.92307692 4.30769231 5.3125 7.8125 C5.209375 8.534375 5.10625 9.25625 5 10 C4.34 9.67 3.68 9.34 3 9 C3 8.01 3 7.02 3 6 C2.34 6 1.68 6 1 6 C1 4.68 1 3.36 1 2 C0.34 1.67 -0.32 1.34 -1 1 C-0.67 0.67 -0.34 0.34 0 0 Z " fill="#464646" transform="translate(322,110)"/>
<path d="M0 0 C0.99 0 1.98 0 3 0 C3.33 1.65 3.66 3.3 4 5 C2.35 5.33 0.7 5.66 -1 6 C-0.67 4.02 -0.34 2.04 0 0 Z " fill="#101010" transform="translate(146,226)"/>
<path d="M0 0 C2.97 0.495 2.97 0.495 6 1 C5.360625 1.226875 4.72125 1.45375 4.0625 1.6875 C1.72806339 2.85250896 1.72806339 2.85250896 1.25 5.625 C1.1675 6.40875 1.085 7.1925 1 8 C-0.42944945 5.64561267 -1.08661261 4.51967567 -0.625 1.75 C-0.41875 1.1725 -0.2125 0.595 0 0 Z " fill="#383838" transform="translate(304,115)"/>
<path d="M0 0 C0.33 0 0.66 0 1 0 C1.33 2.31 1.66 4.62 2 7 C1.34 7 0.68 7 0 7 C0 7.66 0 8.32 0 9 C0.66 9.33 1.32 9.66 2 10 C1.34 10 0.68 10 0 10 C-0.33 10.99 -0.66 11.98 -1 13 C-1.0272415 11.58344207 -1.04650467 10.16672955 -1.0625 8.75 C-1.07410156 7.96109375 -1.08570313 7.1721875 -1.09765625 6.359375 C-1.00385306 4.09308998 -0.63241063 2.1711105 0 0 Z " fill="#4D4D4D" transform="translate(249,283)"/>
<path d="M0 0 C0.99 0.33 1.98 0.66 3 1 C0.525 4.465 0.525 4.465 -2 8 C-3 4 -3 4 -2 1 C-1.34 0.67 -0.68 0.34 0 0 Z " fill="#535353" transform="translate(129,90)"/>
<path d="M0 0 C1.98 0.66 3.96 1.32 6 2 C6 2.33 6 2.66 6 3 C2.37 3 -1.26 3 -5 3 C-3.68 2.34 -2.36 1.68 -1 1 C-0.67 0.67 -0.34 0.34 0 0 Z " fill="#0D0D0D" transform="translate(210,415)"/>
<path d="M0 0 C0 1.65 0 3.3 0 5 C-1.32 5 -2.64 5 -4 5 C-4 3.68 -4 2.36 -4 1 C-2 0 -2 0 0 0 Z " fill="#121212" transform="translate(235,397)"/>
<path d="M0 0 C2.625 0.9375 2.625 0.9375 5 2 C4.01 2.99 3.02 3.98 2 5 C0.68 3.68 -0.64 2.36 -2 1 C-1.34 0.67 -0.68 0.34 0 0 Z " fill="#181818" transform="translate(289,243)"/>
<path d="M0 0 C0.33 0 0.66 0 1 0 C0.67 2.31 0.34 4.62 0 7 C-1.65 7.66 -3.3 8.32 -5 9 C-3.25 5.125 -3.25 5.125 -1 4 C-0.34786708 1.97536745 -0.34786708 1.97536745 0 0 Z " fill="#404040" transform="translate(267,227)"/>
<path d="M0 0 C1.98 0 3.96 0 6 0 C5.01 0.66 4.02 1.32 3 2 C2.27034634 4.56282742 2.27034634 4.56282742 2 7 C1.34 6.67 0.68 6.34 0 6 C0 4.02 0 2.04 0 0 Z " fill="#181818" transform="translate(339,129)"/>
<path d="M0 0 C0.95465783 2.16967689 1.14401212 3.56328793 0.3984375 5.82421875 C-0.35870385 7.5684743 -1.17609198 9.28627131 -2 11 C-2.95465783 8.83032311 -3.14401212 7.43671207 -2.3984375 5.17578125 C-1.64129615 3.4315257 -0.82390802 1.71372869 0 0 Z " fill="#3D3D3D" transform="translate(233,120)"/>
<path d="M0 0 C2.64 0 5.28 0 8 0 C7.67 1.32 7.34 2.64 7 4 C6.401875 3.67 5.80375 3.34 5.1875 3 C2.94613529 1.79212012 2.94613529 1.79212012 0 2 C0 1.34 0 0.68 0 0 Z " fill="#252525" transform="translate(281,108)"/>
<path d="M0 0 C0.99 0.66 1.98 1.32 3 2 C1.71937515 3.7074998 0.38232443 5.37373596 -1 7 C-1.66 7 -2.32 7 -3 7 C-2.38722388 4.03824877 -1.74627478 2.61941217 0 0 Z " fill="#454545" transform="translate(118,89)"/>
<path d="M0 0 C1.98 0.99 1.98 0.99 4 2 C4 2.99 4 3.98 4 5 C2.68 4.67 1.36 4.34 0 4 C0 2.68 0 1.36 0 0 Z " fill="#191919" transform="translate(185,384)"/>
<path d="M0 0 C0.66 0 1.32 0 2 0 C1.375 1.9375 1.375 1.9375 0 4 C-3.125 4.75 -3.125 4.75 -6 5 C-5.195625 4.360625 -4.39125 3.72125 -3.5625 3.0625 C-1.7249496 1.59396498 -1.7249496 1.59396498 0 0 Z " fill="#2A2A2A" transform="translate(277,242)"/>
<path d="M0 0 C0.66 0.33 1.32 0.66 2 1 C1.75 2.875 1.75 2.875 1 5 C-1.0625 6.25 -1.0625 6.25 -3 7 C-3 6.01 -3 5.02 -3 4 C-2.34 4 -1.68 4 -1 4 C-0.67 2.68 -0.34 1.36 0 0 Z " fill="#313131" transform="translate(269,137)"/>
<path d="M0 0 C0 0.66 0 1.32 0 2 C-0.99 2 -1.98 2 -3 2 C-3 2.66 -3 3.32 -3 4 C-2.01 4.33 -1.02 4.66 0 5 C-0.66 5.66 -1.32 6.32 -2 7 C-2.66 6.67 -3.32 6.34 -4 6 C-4.625 3.9375 -4.625 3.9375 -5 2 C-2 0 -2 0 0 0 Z " fill="#0B0B0B" transform="translate(223,130)"/>
<path d="M0 0 C1.98 0.99 1.98 0.99 4 2 C4 2.99 4 3.98 4 5 C3.01 5 2.02 5 1 5 C0.67 3.35 0.34 1.7 0 0 Z " fill="#343434" transform="translate(376,84)"/>
</svg>
